<?xml version="1.0" encoding="UTF-8"?>
<svg id="Camada_2" data-name="Camada 2" xmlns="http://www.w3.org/2000/svg" viewBox="0 0 64 64.07">
  <defs>
    <style>
      .cls-1 {
        fill: #001f3f;
      }
    </style>
  </defs>
  <g id="Camada_1-2" data-name="Camada 1">
    <g>
      <path class="cls-1" d="M60.67,34.65h-6.96v-5.17h6.89c1.82,0,3.35-1.53,3.35-3.35s-1.53-3.35-3.35-3.35h-6.89v-5.05c0-4.13-3.35-7.48-7.48-7.48h-4.98V3.36c0-1.82-1.53-3.36-3.35-3.36s-3.35,1.53-3.35,3.36v6.9h-5.17V3.36c0-1.82-1.53-3.36-3.35-3.36s-3.35,1.53-3.35,3.36v6.9h-4.98c-4.13,0-7.48,3.35-7.48,7.48v5.05H3.35c-1.82,0-3.35,1.53-3.35,3.35s1.53,3.35,3.35,3.35h6.89v5.17s-6.89,0-6.89,0C1.53,34.65,0,36.18,0,38s1.53,3.35,3.35,3.35h6.89v4.98c0,4.13,3.35,7.48,7.48,7.48h4.98v6.9c0,1.82,1.53,3.36,3.35,3.36s3.35-1.53,3.35-3.36v-6.9h5.17v6.9c0,1.82,1.53,3.36,3.35,3.36s3.35-1.53,3.35-3.36v-6.9h4.98c4.13,0,7.48-3.35,7.48-7.48v-4.98h6.93c1.82,0,3.36-1.53,3.36-3.36s-1.53-3.36-3.36-3.36M47.05,46.32c0,.4-.3.8-.8.8h-28.56c-.38,0-.77-.29-.77-.77v-28.69c0-.38.29-.77.77-.77h28.69c.38,0,.77.29.77.77v28.66h-.1Z"/>
      <path class="cls-1" d="M38.67,24.31h-13.4c-.58,0-1.05.47-1.05,1.05v13.4c0,.58.47,1.05,1.05,1.05h13.4c.58,0,1.05-.47,1.05-1.05v-13.4c0-.67-.48-1.05-1.05-1.05"/>
    </g>
  </g>
</svg>